<?xml version="1.0" encoding="UTF-8"?>
<svg id="Capa_1" xmlns="http://www.w3.org/2000/svg" version="1.1" viewBox="0 0 278.35 93.64">
  <!-- Generator: Adobe Illustrator 29.5.1, SVG Export Plug-In . SVG Version: 2.1.0 Build 141)  -->
  <defs>
    <style>
      .st0 {
        fill: #fff;
      }
    </style>
  </defs>
  <path class="st0" d="M0,46.82c0,.73.02,1.46.05,2.19.01.23.03.46.04.69.03.5.07.99.11,1.49.02.26.05.53.08.79.05.48.11.95.18,1.43.03.24.06.49.1.74.11.66.22,1.33.35,1.98.06.28.12.55.18.82.09.4.18.8.27,1.19.09.34.18.69.27,1.03.09.31.17.62.26.92.11.37.22.74.34,1.11.08.24.16.47.24.71.49,1.45,1.06,2.87,1.69,4.26.05.11.09.21.14.32.22.48.44.94.68,1.41.05.08.09.17.13.25,7.76,15.14,23.51,25.5,41.68,25.5v-23.41c-12.93,0-23.41-10.48-23.41-23.41s10.48-23.41,23.41-23.41V0C20.96,0,0,20.96,0,46.82"/>
  <path class="st0" d="M61.84,11.02c2.06.85,4.42-.12,5.27-2.18.85-2.06-.13-4.42-2.18-5.27-2.06-.85-4.42.13-5.27,2.18-.85,2.06.12,4.42,2.18,5.27"/>
  <path class="st0" d="M55.97,25.19c2.44,1.01,6.23-.98,9.93-3.76,5.69-4.27,11.15-10.41,11.15-10.41l.04-.08c-1.68-1.4-3.45-2.68-5.29-3.83-2.1,2.04-10.39,9.99-13.13,11.56-.83-3.05-1.06-14.53-1.1-17.46-2.12-.49-4.27-.84-6.45-1.03l-.03.08s-1.32,22.36,4.87,24.93"/>
  <path class="st0" d="M85,26.73c-2.06.85-3.04,3.21-2.19,5.27.85,2.06,3.21,3.04,5.27,2.19,2.06-.85,3.04-3.21,2.18-5.27-.85-2.06-3.21-3.04-5.27-2.18"/>
  <path class="st0" d="M68.63,37.87c1.01,2.44,5.1,3.72,9.68,4.37,7.04,1,15.25.52,15.25.52l.08-.03c-.19-2.18-.54-4.33-1.03-6.45-2.93-.05-14.41-.28-17.46-1.11,1.57-2.74,9.53-11.02,11.57-13.12-1.15-1.84-2.43-3.61-3.83-5.29l-.08.04s-16.75,14.87-14.18,21.07"/>
  <path class="st0" d="M61.84,82.62c-2.06.85-3.03,3.21-2.18,5.27.85,2.06,3.21,3.03,5.27,2.18,2.05-.86,3.03-3.21,2.18-5.27-.86-2.06-3.21-3.03-5.27-2.18"/>
  <path class="st0" d="M65.9,72.2c-3.7-2.78-7.49-4.77-9.93-3.76-6.19,2.57-4.87,24.93-4.87,24.93l.03.08c2.18-.19,4.33-.54,6.45-1.03.05-2.93.28-14.41,1.1-17.46,2.74,1.57,11.03,9.52,13.13,11.56,1.84-1.15,3.61-2.43,5.29-3.83l-.04-.08s-5.46-6.14-11.15-10.41"/>
  <path class="st0" d="M88.08,59.45c-2.06-.85-4.42.13-5.27,2.18-.85,2.06.13,4.42,2.19,5.27,2.06.85,4.42-.13,5.27-2.19.85-2.06-.13-4.42-2.18-5.27"/>
  <path class="st0" d="M78.31,51.4c-4.58.65-8.67,1.93-9.68,4.37-2.57,6.2,14.18,21.07,14.18,21.07l.08.04c1.4-1.68,2.68-3.44,3.83-5.29-2.04-2.1-10-10.38-11.57-13.12,3.05-.83,14.53-1.06,17.46-1.11.49-2.12.84-4.27,1.03-6.45l-.09-.03s-8.21-.48-15.25.52"/>
  <rect class="st0" x="113.53" y="60.75" width="1.54" height="10.78"/>
  <path class="st0" d="M117.21,71.53v-7.92h1.26l.11.87h.08c.31-.32.68-.56,1.09-.73.41-.17.86-.26,1.34-.26s.94.1,1.33.29c.38.19.69.5.91.92.22.42.33.99.33,1.69v5.14h-1.51v-5.06c0-.62-.13-1.05-.39-1.29-.26-.24-.62-.37-1.08-.37-.22,0-.45.03-.68.1-.23.06-.46.16-.68.3-.22.13-.42.31-.59.54v5.78h-1.51Z"/>
  <path class="st0" d="M127.62,71.67c-.41,0-.8-.03-1.19-.08s-.74-.14-1.1-.24v-1.18c.39.12.77.21,1.15.27.37.06.75.08,1.13.08.63,0,1.08-.1,1.36-.31.28-.21.42-.5.42-.86,0-.31-.08-.55-.24-.71-.16-.16-.43-.29-.82-.37l-1.12-.21c-.72-.16-1.24-.41-1.56-.78-.32-.36-.47-.84-.47-1.42,0-.69.27-1.26.81-1.7.54-.44,1.37-.66,2.49-.66.35,0,.69.02,1.01.06.33.04.63.1.91.18v1.17c-.31-.09-.63-.15-.94-.19-.31-.04-.63-.06-.96-.06-.47,0-.85.05-1.13.16-.28.11-.48.25-.59.43-.12.18-.18.37-.18.59,0,.26.08.48.23.66.15.18.41.31.8.4l1.13.22c.72.15,1.24.39,1.57.74.33.34.49.83.49,1.46,0,.73-.27,1.31-.82,1.75-.55.43-1.34.64-2.37.64"/>
  <path class="st0" d="M131.37,63.6h5.26v1.23h-5.26v-1.23ZM135.45,71.67c-.84,0-1.5-.22-1.97-.65-.47-.43-.69-1.13-.69-2.07v-5.34l.26-2.86h1.25v7.95c0,.63.12,1.06.37,1.31.25.25.63.37,1.14.37.14,0,.28,0,.43-.03.15-.02.31-.05.49-.08v1.25c-.2.04-.4.08-.62.1-.22.03-.44.04-.65.04"/>
  <path class="st0" d="M138.67,62.06c-.33,0-.58-.08-.74-.23-.17-.16-.25-.37-.25-.64s.08-.5.25-.66c.17-.16.42-.23.74-.23s.58.08.74.23c.17.16.25.37.25.66s-.08.48-.25.64c-.17.16-.42.23-.74.23M137.91,63.6h1.51v7.92h-1.51v-7.92Z"/>
  <path class="st0" d="M140.54,63.6h5.26v1.23h-5.26v-1.23ZM144.62,71.67c-.85,0-1.5-.22-1.97-.65-.47-.43-.69-1.13-.69-2.07v-5.34l.26-2.86h1.25v7.95c0,.63.12,1.06.37,1.31.25.25.63.37,1.14.37.14,0,.28,0,.43-.03.15-.02.31-.05.49-.08v1.25c-.2.04-.4.08-.62.1-.22.03-.44.04-.65.04"/>
  <path class="st0" d="M149.58,71.67c-.5,0-.94-.1-1.33-.28-.38-.19-.69-.49-.91-.92-.22-.43-.33-.99-.33-1.69v-5.16h1.51v5.08c0,.62.13,1.05.4,1.28.27.24.61.36,1.04.36.22,0,.44-.03.67-.09.23-.06.46-.16.67-.3.22-.14.41-.32.57-.54v-5.79h1.5v7.92h-1.25l-.11-.84h-.08c-.32.33-.69.57-1.08.73-.41.16-.83.25-1.27.25"/>
  <path class="st0" d="M154.48,63.6h5.26v1.23h-5.26v-1.23ZM158.56,71.67c-.85,0-1.5-.22-1.97-.65-.47-.43-.69-1.13-.69-2.07v-5.34l.26-2.86h1.25v7.95c0,.63.12,1.06.37,1.31.25.25.63.37,1.14.37.14,0,.28,0,.43-.03.15-.02.31-.05.49-.08v1.25c-.2.04-.4.08-.62.1-.22.03-.44.04-.65.04"/>
  <path class="st0" d="M164.12,71.67c-.71,0-1.32-.15-1.84-.44-.52-.29-.93-.74-1.22-1.34-.29-.6-.43-1.38-.43-2.32s.14-1.71.43-2.31c.29-.6.69-1.05,1.21-1.34.52-.29,1.14-.44,1.86-.44s1.35.14,1.86.43c.52.29.92.74,1.2,1.34.28.6.42,1.38.42,2.32s-.14,1.71-.43,2.31c-.28.61-.69,1.05-1.21,1.35-.53.29-1.14.44-1.85.44M164.12,70.47c.41,0,.76-.09,1.06-.26.29-.18.52-.48.68-.9.16-.42.24-.99.24-1.72s-.08-1.32-.24-1.75c-.16-.42-.38-.73-.68-.9-.3-.18-.65-.27-1.05-.27s-.76.09-1.05.26c-.3.17-.52.47-.68.9-.16.42-.24.99-.24,1.72s.08,1.32.24,1.75c.16.42.38.73.68.9.29.17.65.26,1.05.26"/>
  <polygon class="st0" points="175.39 71.53 175.39 62.06 171.89 62.06 171.89 60.75 180.43 60.75 180.43 62.06 176.93 62.06 176.93 71.53 175.39 71.53"/>
  <path class="st0" d="M183.55,71.66c-.76,0-1.35-.2-1.78-.59-.43-.4-.65-.93-.65-1.61s.24-1.26.71-1.65c.47-.4,1.23-.64,2.26-.73l1.97-.2.15.94-1.99.2c-.56.05-.97.19-1.22.41-.25.22-.37.52-.37.91s.11.7.34.91c.23.21.56.32,1.01.32.31,0,.62-.06.92-.19.31-.13.58-.34.84-.63v-3.32c0-.44-.07-.79-.21-1.04-.14-.25-.35-.42-.64-.53-.29-.1-.66-.15-1.1-.15-.3,0-.63.02-1.01.08-.37.05-.74.14-1.12.26v-1.19c.35-.12.74-.2,1.16-.26.42-.06.82-.09,1.19-.09.72,0,1.31.09,1.79.28.47.19.83.5,1.06.94.23.44.35,1.03.35,1.79v5.04h-1.25l-.11-.85h-.08c-.25.33-.57.57-.96.73-.38.17-.81.25-1.26.25"/>
  <path class="st0" d="M189.17,71.53v-7.92h1.25l.11.87h.08c.3-.34.64-.58,1.02-.75.38-.17.79-.25,1.23-.25s.85.09,1.2.28c.35.19.63.49.83.91.2.42.3.98.3,1.68v5.19h-1.49v-5.07c0-.62-.12-1.05-.35-1.29-.23-.24-.55-.36-.95-.36-.19,0-.39.04-.61.1-.22.07-.42.17-.61.31-.19.14-.36.32-.51.55v5.75h-1.51ZM198.18,71.53v-5.07c0-.62-.12-1.05-.37-1.29-.25-.24-.57-.36-.96-.36-.2,0-.42.04-.64.11-.22.07-.44.19-.65.34-.21.16-.39.37-.54.64l-.33-1.11c.37-.48.78-.82,1.24-1.02.46-.2.9-.3,1.34-.3.47,0,.89.09,1.25.29.37.19.66.5.87.92.21.42.31.99.31,1.7v5.14h-1.51Z"/>
  <path class="st0" d="M203.66,71.66c-.76,0-1.35-.2-1.78-.59-.43-.4-.65-.93-.65-1.61s.24-1.26.71-1.65c.47-.4,1.23-.64,2.26-.73l1.97-.2.15.94-1.99.2c-.56.05-.97.19-1.22.41-.25.22-.37.52-.37.91s.11.7.34.91c.23.21.56.32,1.01.32.31,0,.62-.06.92-.19.31-.13.58-.34.84-.63v-3.32c0-.44-.07-.79-.21-1.04-.14-.25-.35-.42-.64-.53-.29-.1-.66-.15-1.1-.15-.3,0-.63.02-1.01.08-.37.05-.75.14-1.12.26v-1.19c.35-.12.74-.2,1.16-.26.42-.06.82-.09,1.19-.09.72,0,1.32.09,1.79.28.48.19.83.5,1.06.94.23.44.35,1.03.35,1.79v5.04h-1.25l-.11-.85h-.08c-.25.33-.57.57-.96.73-.38.17-.81.25-1.26.25"/>
  <path class="st0" d="M211.79,71.67c-.5,0-.95-.1-1.33-.28-.38-.19-.69-.49-.91-.92-.22-.43-.33-.99-.33-1.69v-5.16h1.51v5.08c0,.62.13,1.05.4,1.28.27.24.61.36,1.04.36.22,0,.44-.03.68-.09.23-.06.46-.16.67-.3.22-.14.41-.32.57-.54v-5.79h1.5v7.92h-1.25l-.11-.84h-.08c-.32.33-.69.57-1.08.73-.41.16-.83.25-1.27.25"/>
  <rect class="st0" x="217.62" y="59.76" width="1.51" height="11.77"/>
  <path class="st0" d="M221.92,62.06c-.33,0-.58-.08-.74-.23-.17-.16-.25-.37-.25-.64s.08-.5.25-.66c.17-.16.42-.23.74-.23s.58.08.74.23c.17.16.25.37.25.66s-.09.48-.25.64c-.17.16-.42.23-.74.23M221.16,63.6h1.51v7.92h-1.51v-7.92Z"/>
  <path class="st0" d="M224.71,74.73v-11.13h1.28l.1.86h.08c.23-.29.53-.53.9-.71.37-.18.78-.27,1.25-.27.58,0,1.1.13,1.57.39.47.26.85.68,1.14,1.25.29.58.43,1.34.43,2.3s-.15,1.72-.46,2.35c-.31.63-.76,1.1-1.37,1.42-.6.31-1.35.47-2.24.47-.2,0-.4-.01-.6-.03-.2-.02-.39-.04-.56-.05v3.15h-1.51ZM227.4,70.47c.84,0,1.47-.23,1.89-.69.42-.45.63-1.2.63-2.24,0-.72-.08-1.29-.25-1.69-.17-.4-.4-.69-.7-.85-.31-.16-.65-.25-1.04-.25-.31,0-.62.07-.93.2-.31.13-.57.35-.78.64v4.75c.16.03.35.06.56.08.22.03.42.04.62.04"/>
  <path class="st0" d="M236.6,71.67c-.87,0-1.59-.14-2.17-.43-.58-.28-1.01-.73-1.3-1.33-.29-.61-.43-1.39-.43-2.35,0-.91.13-1.67.4-2.27.27-.61.65-1.06,1.14-1.36.5-.3,1.09-.45,1.78-.45s1.24.15,1.71.45c.47.3.83.76,1.07,1.37.24.61.37,1.38.37,2.3v.44h-5.63v-.96h4.49l-.29.16c0-.67-.07-1.2-.2-1.6-.13-.4-.33-.68-.59-.86-.26-.17-.57-.26-.95-.26s-.69.09-.96.26c-.27.17-.47.46-.62.86-.15.4-.22.93-.22,1.6v.57c0,.66.09,1.18.27,1.57.18.39.46.67.84.84.38.17.87.26,1.47.26.3,0,.62-.03.95-.08s.67-.13,1.02-.22v1.19c-.39.11-.76.19-1.11.23-.35.05-.7.07-1.05.07"/>
  <path class="st0" d="M243.97,71.67c-.79,0-1.45-.15-2-.44-.54-.29-.95-.74-1.24-1.34-.29-.6-.43-1.38-.43-2.32s.15-1.72.46-2.33c.31-.6.75-1.05,1.34-1.34.58-.29,1.3-.43,2.14-.43.28,0,.56.02.85.05.28.03.55.09.8.15v1.24c-.25-.07-.5-.12-.75-.15-.25-.03-.49-.04-.73-.04-.58,0-1.06.09-1.44.28-.38.19-.66.48-.85.9-.19.41-.28.96-.28,1.64s.09,1.25.26,1.67c.18.42.44.72.79.91.34.19.77.28,1.28.28.26,0,.52-.02.79-.08.27-.05.58-.13.92-.23v1.25c-.31.1-.62.18-.95.24-.32.06-.65.08-.98.08"/>
  <path class="st0" d="M250.31,71.67c-.71,0-1.32-.15-1.84-.44-.52-.29-.93-.74-1.22-1.34-.29-.6-.43-1.38-.43-2.32s.14-1.71.43-2.31c.29-.6.69-1.05,1.21-1.34.52-.29,1.14-.44,1.86-.44s1.35.14,1.86.43c.52.29.92.74,1.2,1.34.28.6.42,1.38.42,2.32s-.14,1.71-.43,2.31c-.28.61-.69,1.05-1.21,1.35-.53.29-1.14.44-1.85.44M250.31,70.47c.41,0,.76-.09,1.06-.26.29-.18.52-.48.68-.9.16-.42.24-.99.24-1.72s-.08-1.32-.24-1.75c-.16-.42-.38-.73-.68-.9-.3-.18-.65-.27-1.05-.27s-.76.09-1.05.26c-.3.17-.52.47-.68.9-.16.42-.24.99-.24,1.72s.08,1.32.24,1.75c.16.42.38.73.68.9.29.17.65.26,1.05.26"/>
  <path class="st0" d="M113.4,91.91v-11.13h1.28l.1.86h.08c.23-.29.53-.53.9-.71.37-.18.78-.27,1.25-.27.58,0,1.1.13,1.57.39.47.26.85.68,1.14,1.25.28.58.42,1.34.42,2.3s-.15,1.72-.46,2.35c-.31.63-.76,1.1-1.37,1.42-.6.31-1.35.47-2.24.47-.2,0-.4-.01-.6-.03-.2-.02-.39-.04-.56-.05v3.15h-1.51ZM116.09,87.65c.84,0,1.47-.23,1.89-.69.42-.45.63-1.2.63-2.24,0-.72-.08-1.29-.25-1.69-.17-.4-.41-.69-.71-.85-.31-.16-.65-.25-1.04-.25-.31,0-.62.07-.93.2-.31.13-.57.35-.78.64v4.75c.16.03.34.06.56.08.22.03.42.04.62.04"/>
  <path class="st0" d="M123.79,88.84c-.76,0-1.35-.2-1.78-.59-.43-.4-.65-.93-.65-1.61s.24-1.26.71-1.65c.47-.4,1.23-.64,2.26-.73l1.97-.2.15.94-1.99.2c-.56.05-.97.19-1.22.41-.25.22-.37.52-.37.9s.11.7.34.91c.23.21.56.32,1.01.32.31,0,.62-.06.92-.19.31-.13.58-.34.83-.63v-3.32c0-.44-.07-.79-.21-1.04-.14-.25-.35-.42-.64-.53-.29-.1-.66-.15-1.1-.15-.3,0-.63.02-1.01.08-.37.05-.75.14-1.12.26v-1.19c.35-.12.74-.2,1.16-.26.42-.06.82-.09,1.19-.09.72,0,1.32.09,1.79.28.48.19.83.5,1.06.94.23.44.35,1.03.35,1.79v5.04h-1.25l-.11-.85h-.08c-.25.33-.57.57-.95.73-.39.17-.81.25-1.26.25"/>
  <path class="st0" d="M129.41,88.71v-7.92h1.25l.11,1.05h.09c.26-.38.59-.66.98-.85.39-.19.81-.29,1.24-.29.12,0,.24,0,.34.02.1,0,.2.02.29.04v1.39c-.12-.02-.23-.03-.35-.04-.12,0-.24-.01-.36-.01-.25,0-.5.04-.76.11-.26.08-.51.19-.74.34-.23.15-.43.34-.59.56v5.6h-1.51Z"/>
  <path class="st0" d="M136.83,88.84c-.76,0-1.35-.2-1.78-.59-.43-.4-.65-.93-.65-1.61s.24-1.26.71-1.65c.47-.4,1.23-.64,2.26-.73l1.97-.2.15.94-1.99.2c-.56.05-.97.19-1.22.41-.25.22-.37.52-.37.9s.11.7.34.91c.23.21.56.32,1.01.32.31,0,.62-.06.92-.19.31-.13.58-.34.83-.63v-3.32c0-.44-.07-.79-.21-1.04-.14-.25-.35-.42-.64-.53-.29-.1-.66-.15-1.1-.15-.3,0-.63.02-1.01.08-.37.05-.75.14-1.12.26v-1.19c.35-.12.74-.2,1.16-.26.42-.06.82-.09,1.19-.09.72,0,1.32.09,1.79.28.48.19.83.5,1.06.94.23.44.35,1.03.35,1.79v5.04h-1.25l-.11-.85h-.08c-.25.33-.57.57-.95.73-.39.17-.81.25-1.26.25"/>
  <rect class="st0" x="146.02" y="76.94" width="1.51" height="11.77"/>
  <path class="st0" d="M151.57,88.84c-.76,0-1.35-.2-1.78-.59-.43-.4-.65-.93-.65-1.61s.24-1.26.71-1.65c.47-.4,1.23-.64,2.26-.73l1.97-.2.15.94-1.99.2c-.56.05-.97.19-1.22.41-.25.22-.37.52-.37.9s.11.7.34.91c.23.21.56.32,1.01.32.31,0,.62-.06.92-.19.31-.13.58-.34.84-.63v-3.32c0-.44-.07-.79-.21-1.04-.14-.25-.35-.42-.64-.53-.29-.1-.66-.15-1.1-.15-.3,0-.63.02-1.01.08-.37.05-.74.14-1.12.26v-1.19c.35-.12.74-.2,1.16-.26.42-.06.82-.09,1.19-.09.72,0,1.31.09,1.79.28.48.19.83.5,1.06.94.23.44.35,1.03.35,1.79v5.04h-1.25l-.11-.85h-.08c-.25.33-.57.57-.96.73-.38.17-.8.25-1.26.25"/>
  <path class="st0" d="M165.51,88.84c-.78,0-1.49-.1-2.11-.31-.62-.2-1.15-.52-1.59-.96-.44-.44-.78-1-1.01-1.7-.23-.7-.35-1.55-.35-2.54,0-1.28.21-2.33.61-3.15.41-.82,1-1.42,1.77-1.81.77-.39,1.7-.59,2.79-.59.41,0,.8.02,1.18.08.38.05.76.12,1.12.22v1.31c-.36-.1-.72-.18-1.08-.23-.37-.05-.74-.07-1.13-.07-.79,0-1.46.14-2.01.41-.55.27-.96.72-1.23,1.34-.28.62-.42,1.44-.42,2.46s.14,1.89.42,2.51c.28.62.69,1.06,1.22,1.32.53.26,1.18.39,1.94.39.39,0,.77-.03,1.14-.09.37-.06.75-.16,1.15-.3v1.32c-.35.11-.72.2-1.13.27s-.84.11-1.28.11"/>
  <path class="st0" d="M171.75,88.84c-.5,0-.94-.1-1.33-.28-.38-.19-.69-.49-.91-.92-.22-.43-.33-.99-.33-1.69v-5.16h1.51v5.08c0,.62.13,1.05.4,1.28.27.24.61.36,1.04.36.22,0,.44-.03.67-.09.23-.06.46-.16.67-.3.22-.14.41-.32.58-.54v-5.79h1.5v7.92h-1.25l-.1-.84h-.08c-.32.33-.68.57-1.08.73-.4.16-.83.25-1.27.25"/>
  <rect class="st0" x="177.58" y="76.94" width="1.51" height="11.77"/>
  <path class="st0" d="M180.2,80.78h5.26v1.23h-5.26v-1.23ZM184.28,88.84c-.84,0-1.5-.22-1.97-.65-.47-.43-.69-1.13-.69-2.07v-5.34l.26-2.86h1.25v7.95c0,.62.12,1.06.37,1.31.25.25.63.37,1.14.37.14,0,.28,0,.43-.03.15-.02.31-.05.49-.08v1.25c-.2.04-.4.08-.62.1-.22.03-.44.04-.65.04"/>
  <path class="st0" d="M189.24,88.84c-.5,0-.94-.1-1.33-.28-.38-.19-.69-.49-.91-.92-.22-.43-.33-.99-.33-1.69v-5.16h1.51v5.08c0,.62.13,1.05.4,1.28.27.24.61.36,1.04.36.22,0,.44-.03.67-.09.23-.06.46-.16.67-.3.22-.14.41-.32.57-.54v-5.79h1.5v7.92h-1.25l-.11-.84h-.08c-.32.33-.69.57-1.08.73-.41.16-.83.25-1.27.25"/>
  <path class="st0" d="M195.06,88.71v-7.92h1.25l.12,1.05h.09c.26-.38.59-.66.98-.85.39-.19.81-.29,1.24-.29.12,0,.24,0,.34.02.1,0,.2.02.29.04v1.39c-.12-.02-.23-.03-.35-.04-.12,0-.24-.01-.35-.01-.25,0-.5.04-.76.11-.26.08-.51.19-.74.34-.23.15-.43.34-.59.56v5.6h-1.51Z"/>
  <path class="st0" d="M202.49,88.84c-.76,0-1.35-.2-1.78-.59-.43-.4-.65-.93-.65-1.61s.24-1.26.71-1.65c.47-.4,1.22-.64,2.26-.73l1.97-.2.15.94-1.99.2c-.56.05-.97.19-1.22.41-.25.22-.37.52-.37.9s.11.7.34.91c.23.21.56.32,1.01.32.31,0,.62-.06.92-.19.31-.13.58-.34.83-.63v-3.32c0-.44-.07-.79-.21-1.04-.14-.25-.35-.42-.64-.53-.29-.1-.66-.15-1.1-.15-.3,0-.63.02-1.01.08-.37.05-.74.14-1.12.26v-1.19c.35-.12.74-.2,1.16-.26.42-.06.82-.09,1.19-.09.72,0,1.31.09,1.79.28.48.19.83.5,1.06.94.23.44.35,1.03.35,1.79v5.04h-1.25l-.11-.85h-.08c-.25.33-.57.57-.95.73-.39.17-.81.25-1.26.25"/>
  <path class="st0" d="M213.64,88.71l-2.91-7.92h1.59l2.74,7.92h-1.42ZM212.88,91.91l1.18-3.2.5-1.14,2.39-6.78h1.5l-4.08,11.13h-1.49Z"/>
  <rect class="st0" x="223.11" y="76.94" width="1.51" height="11.77"/>
  <path class="st0" d="M228.66,88.84c-.76,0-1.35-.2-1.78-.59-.43-.4-.65-.93-.65-1.61s.24-1.26.71-1.65c.47-.4,1.23-.64,2.26-.73l1.97-.2.15.94-1.99.2c-.56.05-.97.19-1.22.41-.25.22-.37.52-.37.9s.11.7.34.91c.23.21.56.32,1.01.32.31,0,.62-.06.92-.19.31-.13.58-.34.83-.63v-3.32c0-.44-.07-.79-.21-1.04-.14-.25-.35-.42-.64-.53-.29-.1-.66-.15-1.1-.15-.3,0-.63.02-1.01.08-.37.05-.75.14-1.12.26v-1.19c.35-.12.74-.2,1.16-.26.42-.06.82-.09,1.19-.09.72,0,1.32.09,1.79.28.48.19.83.5,1.06.94.23.44.35,1.03.35,1.79v5.04h-1.25l-.11-.85h-.08c-.25.33-.57.57-.95.73-.39.17-.81.25-1.26.25"/>
  <path class="st0" d="M236.29,88.85c-.41,0-.8-.03-1.19-.08s-.74-.14-1.1-.24v-1.18c.39.12.77.21,1.15.27.37.06.75.08,1.13.08.63,0,1.08-.1,1.36-.31.28-.21.42-.5.42-.86,0-.31-.08-.55-.24-.71-.16-.16-.43-.29-.82-.37l-1.12-.21c-.72-.16-1.24-.41-1.56-.78-.32-.36-.47-.84-.47-1.42,0-.69.27-1.26.81-1.7.54-.44,1.37-.66,2.49-.66.35,0,.69.02,1.01.06.33.04.63.1.91.18v1.17c-.31-.09-.63-.15-.94-.19-.31-.04-.63-.06-.96-.06-.47,0-.85.05-1.13.16-.28.11-.48.25-.59.43-.12.18-.18.37-.18.59,0,.26.07.48.22.66.15.18.41.31.8.4l1.13.22c.72.15,1.24.39,1.57.74.33.34.49.83.49,1.46,0,.73-.27,1.31-.82,1.75-.55.43-1.34.64-2.37.64"/>
  <path class="st0" d="M243.68,88.71l3.73-10.78h2.18l3.72,10.78h-1.54l-3.39-10.07h.21l-3.39,10.07h-1.52ZM245.81,85.4l.35-1.27h4.68l.34,1.27h-5.36Z"/>
  <path class="st0" d="M254.5,88.71v-7.92h1.25l.11,1.05h.09c.26-.38.59-.66.98-.85.39-.19.81-.29,1.24-.29.12,0,.24,0,.34.02.1,0,.2.02.29.04v1.39c-.12-.02-.23-.03-.35-.04-.12,0-.24-.01-.36-.01-.25,0-.5.04-.76.11-.26.08-.51.19-.74.34-.23.15-.43.34-.59.56v5.6h-1.51Z"/>
  <path class="st0" d="M258.99,80.78h5.26v1.23h-5.26v-1.23ZM263.07,88.84c-.84,0-1.5-.22-1.97-.65-.47-.43-.69-1.13-.69-2.07v-5.34l.26-2.86h1.25v7.95c0,.62.12,1.06.37,1.31.25.25.63.37,1.14.37.14,0,.28,0,.43-.03.15-.02.31-.05.49-.08v1.25c-.2.04-.4.08-.62.1-.22.03-.44.04-.65.04"/>
  <path class="st0" d="M269.04,88.85c-.87,0-1.59-.14-2.17-.43-.58-.28-1.01-.73-1.3-1.33-.29-.61-.43-1.39-.43-2.35,0-.91.13-1.67.4-2.27.27-.61.65-1.06,1.14-1.36.5-.3,1.09-.45,1.79-.45s1.24.15,1.71.45c.47.3.83.76,1.07,1.37.24.61.37,1.38.37,2.3v.44h-5.63v-.96h4.49l-.29.16c0-.67-.07-1.2-.2-1.6-.13-.4-.33-.68-.59-.85-.26-.17-.57-.26-.95-.26s-.69.09-.96.26c-.27.17-.47.46-.62.86-.14.4-.22.93-.22,1.6v.57c0,.66.09,1.18.27,1.57.18.39.46.67.84.84.38.17.87.26,1.47.26.3,0,.62-.03.95-.08.33-.05.67-.13,1.02-.22v1.19c-.39.11-.76.19-1.11.23-.35.05-.7.07-1.05.07"/>
  <path class="st0" d="M275.15,88.85c-.41,0-.8-.03-1.18-.08-.38-.06-.75-.14-1.1-.24v-1.18c.39.12.77.21,1.15.27.37.06.75.08,1.13.08.63,0,1.08-.1,1.36-.31.28-.21.42-.5.42-.86,0-.31-.08-.55-.24-.71-.16-.16-.43-.29-.82-.37l-1.13-.21c-.72-.16-1.24-.41-1.56-.78-.32-.36-.47-.84-.47-1.42,0-.69.27-1.26.81-1.7.54-.44,1.37-.66,2.49-.66.35,0,.69.02,1.01.06.33.04.63.1.91.18v1.17c-.31-.09-.63-.15-.94-.19-.31-.04-.63-.06-.97-.06-.47,0-.84.05-1.13.16-.28.11-.48.25-.59.43-.12.18-.18.37-.18.59,0,.26.08.48.22.66.15.18.42.31.8.4l1.12.22c.72.15,1.24.39,1.57.74.33.34.49.83.49,1.46,0,.73-.27,1.31-.82,1.75-.55.43-1.34.64-2.38.64"/>
  <rect class="st0" x="112.39" y="4.59" width="13.6" height="46.79"/>
  <polygon class="st0" points="143.89 51.38 143.89 15.87 129.81 15.87 129.81 4.59 171.59 4.59 171.59 15.87 157.52 15.87 157.52 51.38 143.89 51.38"/>
  <path class="st0" d="M200.49,52.01c-4.26,0-8.03-.48-11.31-1.45-3.28-.97-6.04-2.44-8.27-4.39-2.23-1.96-3.92-4.44-5.05-7.45-1.13-3-1.69-6.54-1.69-10.61,0-5.18,1.03-9.57,3.1-13.17,2.07-3.59,5.1-6.32,9.09-8.19,3.99-1.87,8.87-2.8,14.64-2.8,1.76,0,3.47.08,5.14.24,1.67.16,3.27.41,4.79.74v11.13c-1.34-.25-2.74-.46-4.2-.63-1.46-.17-2.98-.25-4.54-.25-3.18,0-5.78.45-7.82,1.36-2.04.91-3.54,2.3-4.51,4.17-.97,1.87-1.46,4.3-1.46,7.27s.47,5.46,1.41,7.35c.94,1.89,2.4,3.27,4.39,4.14,1.98.87,4.55,1.31,7.68,1.31,1.5,0,3.03-.12,4.58-.36,1.55-.24,3.04-.55,4.48-.93v11.13c-1.42.42-3.06.76-4.92,1.01-1.86.25-3.7.38-5.52.38"/>
  <path class="st0" d="M247.13,51.38h13.29l-13.85-46.79h-20l-13.85,46.79h13.17l2.93-10.72h15.37l2.95,10.72ZM231.74,29.91l4.73-17.3,4.76,17.3h-9.48Z"/>
</svg>